<?xml version="1.0" encoding="utf-8"?>
<!-- Generator: Adobe Illustrator 13.0.0, SVG Export Plug-In  -->
<!DOCTYPE svg PUBLIC "-//W3C//DTD SVG 1.0//EN" "http://www.w3.org/TR/2001/REC-SVG-20010904/DTD/svg10.dtd" [
	<!ENTITY ns_flows "http://ns.adobe.com/Flows/1.0/">
]>
<svg version="1.0"
	 xmlns="http://www.w3.org/2000/svg" xmlns:xlink="http://www.w3.org/1999/xlink" xmlns:a="http://ns.adobe.com/AdobeSVGViewerExtensions/3.0/"
	 x="0px" y="0px" width="48px" height="48px" viewBox="-0.7 -0.1 42 42" enable-background="new -0.7 -0.1 42 42"
	 xml:space="preserve">
<!-- From: https://commons.wikimedia.org/wiki/File:Tiger_Icon.svg -->
<!-- Author: Ksiom -->
<!-- License: GNU Free Documentation License, Version 1.2 or any later -->
<defs>
</defs>
<linearGradient id="path3001_3_" gradientUnits="userSpaceOnUse" x1="845.3345" y1="-1195.7896" x2="838.4984" y2="-1157.02" gradientTransform="matrix(1 0 0 -1 -820.9805 -1156.4932)">
	<stop  offset="7.692307e-002" style="stop-color:#FFFFFF"/>
	<stop  offset="0.533" style="stop-color:#ED9C00"/>
	<stop  offset="1" style="stop-color:#FFF000"/>
</linearGradient>
<path id="path3001_1_" fill="url(#path3001_3_)" stroke="#000000" stroke-width="3" stroke-linecap="round" stroke-linejoin="round" stroke-miterlimit="2" d="
	M38.8,18.6c-0.2-3.9-2.6-7.4-3.5-8.2C40.9,6,36.8,3.9,35.5,3c-1.2-0.9-5.1,1.3-6.4,2.4c-1.4-0.6-3.3-1.2-5.7-1.5
	c-2.3-0.2-4.7-0.1-6.8,0.4C15.8,2.2,12.2,0,9.3,2.8c-2.9,2.8-1,5,0.7,6.5C8.2,10.7,6.7,11,4.4,13c-0.8,0.7-1.8,1.6-2.9,2.6v5.6
	c1.2,3.7,1.9,8.9,2.8,11.9c0.5,1.6,2.1,5.2,2.6,7.1h12.2c1.2-2.3,2.5-4,3.4-3.7c4.2,1.4,7.7-0.5,8.2-1.2c0.9-1.2,0.8-2.7,1.8-3.2
	c1-0.4,3.6-3.1,4.2-4.9C37.4,25.4,39,22.9,38.8,18.6z"/>
<path id="path2397_1_" fill="none" stroke="#000000" stroke-width="1.4292" stroke-linecap="round" d="M16.8,15.3
	c1.8-0.2,3,0.1,3.7,0.7c0.7,0.6,0.7,2.2,0.5,3.6"/>
<path id="path2399_1_" fill="none" stroke="#000000" stroke-width="1.4292" stroke-linecap="round" d="M32.1,14.4
	c-1.5,0.5-2.1,1.2-2.4,2c-0.4,0.9-0.1,2,0.3,3.5"/>
<path id="path3187_1_" fill="none" stroke="#000000" stroke-width="1.4292" stroke-linecap="round" d="M20,32.1c1,0.6,4.4,0,5.1-0.2
	c1.6-0.5,1.2-1.4,1.3-2.5c0.1,0.3,0,2.1,0.2,2.1c1.4,0.5,5.3,0.4,6.2-0.1"/>
<path id="path3190_1_" fill="none" stroke="#000000" stroke-width="1.4292" stroke-linecap="round" stroke-linejoin="round" d="
	M16.5,35.3l-3.1,0.6l0.2-3.8l-3.1,0.7v-3.2l-2.9,0.7l0.7-3.8l-2.8-0.1L6.3,24l-1.2-2.4L7,16.8"/>
<path id="path3171_1_" d="M19.8,18.4c-0.4,0.4-1.1,0.3-1.6-0.1c-0.5-0.5-0.6-1.2-0.3-1.6l0,0c0.4-0.4,1.1-0.3,1.6,0.1
	C20.1,17.3,20.2,18,19.8,18.4L19.8,18.4z"/>
<path id="path3173_1_" d="M30.5,17.8c0.3,0.4,1,0.3,1.5-0.1c0.5-0.4,0.6-1.1,0.2-1.5l0,0c-0.3-0.4-1-0.3-1.5,0.1
	C30.3,16.8,30.2,17.5,30.5,17.8L30.5,17.8z"/>
<path id="path3262_1_" d="M22.4,26.8c-0.4,1,2.7,2.4,4.1,3.1c1-0.6,3.9-2.2,3.8-3.2c-0.1-0.8-2.8-0.3-3.7-0.2
	C25.3,26.6,22.8,25.5,22.4,26.8z"/>
<path id="path3228_1_" d="M13.9,8.6l1.2-1.3c-0.4-1.7-1.4-2.8-2-2.9c-1-0.2-2.2,1-1.7,2.1C11.8,7.7,13.9,8.6,13.9,8.6z"/>
<path id="path3230_1_" d="M32.2,9.3l-1.4-1.4C31.1,6.4,33,6.1,33.5,6c0.8-0.1,1.4,0.6,1,1.6C34.2,8.6,32.2,9.3,32.2,9.3z"/>
<path id="path3006_1_" stroke="#000000" stroke-width="0.7146" d="M16,24.7c-1.2-0.8-3.4-3.1-3.7-4.2c-0.2-0.8,0.3-0.3,0.6,0.3
	c0.3,0.6,0.5,1.1,1.1,1.7C14.6,23.2,16.8,25.2,16,24.7z"/>
<path id="path3008_1_" stroke="#000000" stroke-width="0.7146" stroke-linecap="round" d="M12.5,25c0.4-0.5,2.5,2.1,3.9,2.5
	c1.3,0.4,1.9-0.8,2.3-0.7c-0.5,0.8-1.5,1.3-2.8,0.6C14.9,26.9,12.3,25.3,12.5,25z"/>
<path id="path3010_1_" stroke="#000000" stroke-width="0.7146" stroke-linecap="round" d="M16.4,29.6c1,0.6,2-0.4,2.3-0.4
	c-0.6,0.6-2,1.5-2.8,0.7C15.8,29.9,16.2,29.5,16.4,29.6z"/>
<path id="path3012_1_" stroke="#000000" stroke-width="0.7146" d="M34.1,23.7c-0.2-0.1,2.2-3.6,2.2-4.9c0.1-0.9-0.2-0.2-0.4,0.4
	c-0.2,0.6-0.3,1.2-0.6,1.9C35,22,34.4,23.9,34.1,23.7z"/>
<path id="path3014_1_" stroke="#000000" stroke-width="0.7146" stroke-linecap="round" d="M37.5,23.2c-0.4-0.4-1.6,2.5-2.6,3.1
	c-0.9,0.6-1.6-0.6-1.8-0.3c-0.3,0.5,1.3,1,2.2,0.1C36,25.5,37.7,23.4,37.5,23.2z"/>
<path id="path3016_1_" stroke="#000000" stroke-width="0.7146" stroke-linecap="round" d="M34.9,28.9c-0.7,0.7-1.8-0.1-1.8,0
	c0.2,0.4,1.8,1.1,2.2,0.2C35.3,29.1,35,28.7,34.9,28.9z"/>
<path id="path3026_1_" stroke="#000000" stroke-width="0.7146" d="M24.4,10.5c0.5,0,0.6,0.5,1,0.8c0.3,0.2,2.4,0.6,2.1,0.9
	c-0.4,0.4-1.6-0.5-3.2-0.5c-1.5,0-3.9,1.4-4.3,0.9c-0.1-0.2,2.1-0.9,2.9-1.3C23.4,11.1,23.9,10.5,24.4,10.5z"/>
<path id="path3028_1_" stroke="#000000" stroke-width="0.7146" d="M24,6.8c1.4,0,1.4,1.1,2.6,1.5c1.7,0.6,3.5,0.8,3.2,1.2
	c-0.4,0.5-3.8-1.1-6.5-1c-2.5,0.1-6.6,2.1-6.9,1.5c-0.2-0.4,2.2-0.4,4.2-1.6C21.8,7.8,22.6,6.9,24,6.8z"/>
<path opacity="0.3" fill="#FFFFFF" d="M12.3,3c1.4,0,2.6,1.1,2.8,1.9l0.5,1.2l1.3-0.3c1.3-0.3,2.7-0.5,4.3-0.5c0.7,0,1.4,0,2.1,0.1
	c1.9,0.2,3.6,0.7,5.2,1.4l0.9,0.4l0.7-0.6c1-0.9,3.6-2.3,4.6-2.3l0,0L35,4.5c0.6,0.4,1.7,1.1,1.7,1.8c0,0.3-0.2,1.3-2.3,3L33,10.4
	l1.3,1.2c0.6,0.5,2.8,3.6,3,7.2c0.1,3.1-0.8,5.2-1.5,6.8c-0.2,0.4-0.4,0.8-0.5,1.1c-0.5,1.5-2.8,3.8-3.4,4.1l0,0h-0.1
	c-1.1,0.6-1.5,1.6-1.8,2.4c-0.2,0.5-0.3,0.9-0.6,1.2c-0.3,0.3-1.8,1.1-3.9,1.1c-0.9,0-1.7-0.1-2.6-0.4C22.8,35,22.5,35,22.3,35
	c-0.9,0-2.2,0.4-4.1,3.7H8c-0.3-1-0.8-2.2-1.3-3.3c-0.4-1.1-0.8-2.1-1-2.7c-0.4-1.3-0.7-3-1.1-4.8c-0.5-2.3-1-4.8-1.6-6.8v-4.7
	c0.9-0.8,1.7-1.5,2.4-2.1c1.2-1,2.1-1.6,3.1-2.1c0.8-0.4,1.6-0.9,2.4-1.5l1.4-1.1L11,8.2c-0.7-0.6-1.7-1.6-1.7-2.5
	c0-0.5,0.3-1.2,1-1.8C11,3.3,11.6,3,12.3,3 M12.3,4c-0.5,0-0.9,0.2-1.3,0.6c-0.7,0.7-0.7,1-0.7,1.1c0,0.2,0.1,0.6,1.4,1.7L13,8.6
	c0.2,0.2,0.3,0.5,0.3,0.8c0,0.3-0.1,0.6-0.3,0.8l-1.4,1.1c-1,0.7-1.8,1.2-2.6,1.6c-0.9,0.5-1.8,1-3,2c-0.6,0.5-1.3,1.1-2,1.8v4.1
	c0.7,2.1,1.1,4.5,1.6,6.8c0.4,1.8,0.7,3.5,1.1,4.8C6.9,33,7.3,34,7.7,35c0.4,0.9,0.7,1.9,1,2.7h8.9c1.5-2.6,3-3.7,4.7-3.7
	c0.3,0,0.7,0.1,1,0.2c0.7,0.2,1.5,0.4,2.3,0.4c1.7,0,2.9-0.6,3.2-0.8c0.1-0.2,0.2-0.5,0.4-0.9c0.3-0.9,0.8-2.2,2.3-3l0,0h0.1
	c0.5-0.3,2.4-2.3,2.8-3.5c0.2-0.4,0.3-0.8,0.5-1.2c0.7-1.6,1.6-3.5,1.4-6.4c-0.2-3.4-2.4-6.2-2.7-6.5l-1.3-1.2
	c-0.2-0.2-0.3-0.5-0.3-0.8c0-0.3,0.1-0.6,0.4-0.8l1.4-1.1c1.6-1.3,1.9-2,1.9-2.1c-0.1-0.3-0.9-0.8-1.2-1c-0.9,0.2-2.9,1.2-3.8,2
	L30,7.9c-0.2,0.2-0.4,0.2-0.6,0.2c-0.1,0-0.3,0-0.4-0.1l-0.9-0.4c-1.5-0.6-3.2-1.1-5-1.3c-0.6-0.1-1.3-0.1-1.9-0.1
	c-1.5,0-2.8,0.1-4,0.4l-1.3,0.3c-0.1,0-0.2,0-0.2,0c-0.4,0-0.8-0.2-0.9-0.6l-0.5-1.2C14.1,4.8,13.3,4,12.3,4L12.3,4z"/>
<path opacity="0.3" fill="#FFFFFF" d="M34.3,11.6L33,10.4l1.4-1.1c2.1-1.7,2.3-2.7,2.3-3c0-0.7-1.1-1.4-1.7-1.8l-0.3-0.2
	c-1,0-3.6,1.4-4.6,2.3l-0.7,0.6l-0.9-0.4c-1.5-0.7-3.3-1.2-5.2-1.4c-0.7-0.1-1.4-0.1-2.1-0.1c-1.6,0-3,0.2-4.3,0.5l-1.3,0.3
	l-0.5-1.2C14.9,4.1,13.7,3,12.3,3c-0.7,0-1.3,0.3-2,0.9c-0.7,0.6-1,1.3-1,1.8c0,0.9,1,1.9,1.7,2.5l1.3,1.3l-1.4,1.1
	c-0.8,0.6-1.6,1.1-2.4,1.5c-1,0.5-1.9,1.1-3.1,2.1c-0.7,0.6-1.5,1.3-2.4,2.1V21c0.4,1.4,0.8,2.9,1.2,4.6c0.7,0.1,1.5,0.1,2.3,0.1
	c4.3,0,9.3-1,13.9-4.3c3-2.1,6.1-2.9,9.1-2.9c2.8,0,5.5,0.7,7.8,1.6c0-0.4,0-0.9,0-1.3C37.1,15.2,34.9,12.1,34.3,11.6z"/>
</svg>

